PathFileType	4	(X/Y/Z)	Patient4_TMGait_0pt6_02_right_22.trc.trc
DataRate	CameraRate	NumFrames	NumMarkers	Units	OrigDataRate	OrigDataStartFrame	OrigNumFrames
83.333333333333	83.333333333333	6	33	mm	83.333333333333	1	       141
Frame#	Time	Sacral			L.Shoulder			Chest			R.Shoulder			Neck			R.ASIS			L.ASIS			R.Thigh.Superior			R.Thigh.Lateral			R.Thigh.Inferior			R.Patella			L.Thigh.Superior			L.Thigh.Lateral			L.Thigh.Inferior			L.Patella			L.Shank.Superior			L.Shank.Lateral			L.Shank.Inferior			R.Shank.Superior			R.Shank.Lateral			R.Shank.Inferior			R.Heel			R.Midfoot.Superior			R.Midfoot.Lateral			R.Toe			L.Heel			L.Midfoot.Lateral			L.Midfoot.Superior			L.Toe			L.Elbow			L.Wrist			R.Elbow			R.Wrist			
		X1	Y1	Z1	X2	Y2	Z2	X3	Y3	Z3	X4	Y4	Z4	X5	Y5	Z5	X6	Y6	Z6	X7	Y7	Z7	X8	Y8	Z8	X9	Y9	Z9	X10	Y10	Z10	X11	Y11	Z11	X12	Y12	Z12	X13	Y13	Z13	X14	Y14	Z14	X15	Y15	Z15	X16	Y16	Z16	X17	Y17	Z17	X18	Y18	Z18	X19	Y19	Z19	X20	Y20	Z20	X21	Y21	Z21	X22	Y22	Z22	X23	Y23	Z23	X24	Y24	Z24	X25	Y25	Z25	X26	Y26	Z26	X27	Y27	Z27	X28	Y28	Z28	X29	Y29	Z29	X30	Y30	Z30	X31	Y31	Z31	X32	Y32	Z32	X33	Y33	Z33	

1	26.390000000000	786.235737097961	1013.487862413013	430.431980260148	965.546760568925	1436.765535346843	246.402881424870	1070.960551350824	1365.463074481401	404.808472316170	991.464801153386	1440.812435878867	579.438212365625	962.971168648506	1499.069258537016	399.363954081308	1013.085947707814	945.496977006067	542.515129517970	997.627126218626	964.076611932125	269.885434595423	1095.731851434355	777.090670381340	508.435622306092	1059.441529081898	654.896389777135	580.306905194898	1147.063450965174	617.310950846575	497.512403663513	1166.100499134260	501.715914588131	516.360534719778	1044.090534210158	752.395579796596	294.438737175885	949.089759832256	639.217559514388	242.154020948245	1033.067843937917	560.152847689585	303.359316416174	1031.551857377577	491.895277180589	314.945974536109	1007.835010992334	420.396684988089	308.271004821324	919.920735538542	302.621518874939	262.838381383056	976.514456280124	194.688417389020	335.085905970190	1087.054319077849	429.078989553093	525.349451987164	965.774993620514	394.264875356706	589.186695425703	944.948356557151	286.847622909184	539.685748014943	741.017608014461	234.776566033207	516.848186052029	907.199505131688	166.098124440311	550.730816664376	798.677311451877	169.967010616199	587.096919020503	967.024333097510	50.299748922335	573.055303641119	854.350648281547	38.086578813969	387.109298656741	923.387313843043	34.658985697377	301.836516009740	1007.122447288937	96.596391956313	323.837471013224	1134.310312987560	46.856946858547	288.233528629688	983.042314454422	1086.087968802769	116.341719263849	1107.637515097484	856.123341507797	112.648218981022	975.327576184657	1087.934238277375	691.083966757589	1140.648426882052	886.664631702219	667.897478286539	
2	26.402000000000	785.380506237564	1013.828624131121	428.892077671456	966.853241261631	1437.618150862576	246.252940649629	1070.689482873750	1365.739434718784	405.361995487997	989.761795773968	1440.579305718941	579.505529429487	962.849855883787	1499.464266603497	399.370975420327	1011.923589939214	946.692259048131	542.571006133761	997.443057657840	964.096247845953	269.576544503720	1096.589781535656	780.806013289964	507.953475174263	1062.652761685142	658.117222265173	580.145808034799	1150.512870272700	621.995128187675	497.035725658890	1172.277205129509	507.460283415509	516.080320886609	1041.862528321801	751.498117394246	295.230284273428	946.159288787088	639.172389125715	242.069280815963	1028.733679841839	559.379638341940	303.989666742134	1026.358484308762	491.170229356599	315.700413654999	1002.466926956709	419.908294264244	308.727956579092	914.131668315679	302.639108210823	262.877377053151	969.697335368914	194.425184506682	335.355541925034	1095.937244916852	432.646068631129	525.259660882646	976.606266859501	392.882043355961	589.186647420217	960.307642721423	284.819582848833	539.611489442918	759.184926387561	224.273891643876	517.052538107929	927.751838468140	162.827295080379	550.500354360898	819.456947056035	162.080721646193	587.205344021684	992.348734864907	49.903295389119	572.826230645472	846.700634516895	38.063440261293	387.082094342391	915.763108742026	34.692730475610	301.787918225392	999.546430550159	96.539721786590	323.920826509463	1126.728004773169	46.682537593011	288.255317808988	991.837663059226	1089.105300883649	113.930511643432	1127.376926630979	866.264509692379	110.987658994878	965.166726098515	1088.116609000409	690.384212271237	1111.293154516259	875.312071522952	672.655876262350	
3	26.414000000000	784.555907626562	1014.154945965749	427.389686629387	968.169475330187	1438.442144122905	246.120717738235	1070.439792285248	1365.990543859100	405.922583529507	988.103833505373	1440.327327772620	579.586456946441	962.745632167159	1499.837293189072	399.395846450147	1010.767644014096	947.831981702332	542.631678435786	997.308008599350	964.121694562595	269.296855194397	1097.396201645422	784.405812068008	507.512309356867	1065.752713754991	661.250801440605	580.027302814702	1153.808078097824	626.524809012288	496.589115399958	1178.229651131745	513.078571543853	515.847537632734	1039.665590351239	750.604139934743	296.063843837435	943.263527779818	639.127072116787	241.975445160647	1024.418122268288	558.605897583437	304.615312215228	1021.192608687642	490.453960215226	316.430515026079	997.131413380884	419.424655265376	309.168488470463	908.386841758535	302.648410123523	262.908250161319	962.946889952705	194.162884078159	335.617153866869	1104.638622885231	436.114684498310	525.210197380748	987.325650659619	391.371754598682	589.236816539152	975.591254072232	282.710447590469	539.578121938422	777.360816800624	213.652518796028	517.292631919238	948.278445260889	159.510770935208	550.324905117840	840.251574849673	154.126175564177	587.363863692622	1017.660453144554	49.523199528819	572.648820535386	839.134062170092	38.039211722098	387.051879178180	908.221359543959	34.720620249899	301.742731764953	992.050927572475	96.483365254857	324.005102311377	1119.228719532600	46.514392534881	288.278218811563	1000.414914283621	1092.074589621105	111.578395628327	1146.786781980687	876.436914013997	109.427495261370	955.099426907225	1088.328286669921	689.710366798140	1082.283794430583	864.532633034364	677.335098567798	
4	26.426000000000	783.802523546198	1014.444876295870	425.961500936270	969.512230147389	1439.203446668975	246.030174052599	1070.238892277209	1366.188768856842	406.505972326562	986.538654128494	1440.043812665161	579.697465803634	962.683822034077	1500.162489065730	399.457436591766	1009.636221156228	948.857604889078	542.712561411438	997.269995587503	964.149880794034	269.079625091687	1098.084968225159	787.745564877250	507.163404963793	1068.582671009084	664.173933434037	579.998289424582	1156.768695466946	630.715648962918	496.228411853649	1183.710215426868	518.431574573618	515.722441315816	1037.520273262864	749.706334791604	296.966777791835	940.413514239018	639.078047211453	241.870177002258	1020.113606715668	557.825351535171	305.230604650851	1016.051508417682	489.751161098088	317.113444576571	991.823457261834	418.946342084468	309.579488428015	902.686713560500	302.644890048971	262.923178116064	956.274580595359	193.902106536713	335.863635205077	1112.977619076954	439.382244908553	525.250034492125	997.867164570236	389.588762103914	589.393322551643	990.802581844790	280.451575151210	539.629105555229	795.728024939542	202.765725947097	517.600153203655	968.874490003338	156.148825779379	550.254783205120	861.241508023713	146.044394032405	587.616004837976	1043.076062516253	49.285545165485	572.570433756745	831.673588261035	38.016871306131	387.015609700541	900.783552386651	34.739507105835	301.703131539405	984.657081237195	96.427745940916	324.090053302646	1111.834214592179	46.355091941248	288.303120636261	1008.605599513036	1094.951555758546	109.347852221311	1165.598517608603	886.739047175333	108.083058860384	945.143931733447	1088.659909736005	689.103364090859	1053.863485367883	854.908338333507	681.865787685637	
5	26.438000000000	783.149403744465	1014.682949169002	424.632040934389	970.896315223813	1439.872051599782	246.003487948116	1070.111457696026	1366.310740691326	407.127737988191	985.107795045911	1439.722089103797	579.853204376779	962.688722032849	1500.417715238770	399.572299365643	1008.549077058573	949.721171788977	542.830650920095	997.359649780667	964.169161697463	268.953447268116	1098.597968988492	790.698990554390	506.947917934677	1070.998204865845	666.772876429180	580.098278804594	1159.240304869913	634.407137699371	496.008631809394	1188.514876994451	523.400435909024	515.759163694530	1035.441496112336	748.793525377235	297.950161247813	937.609294105235	639.021103237483	241.754055934579	1015.805949815415	557.030783904146	305.830079691148	1010.921467865235	489.062730308303	317.734108017979	986.526636532305	418.472443321262	309.952110414551	897.016797949316	302.625942667769	262.916416817094	949.670381625043	193.642521239932	336.090164616520	1120.809076274282	442.365048027714	525.421461303132	1008.196846508764	387.415257083498	589.705700564175	1005.971137567721	277.998877362574	539.800066488091	814.497716254468	191.499217078989	517.999285622986	989.656521880038	152.767932453972	550.326476763233	882.628289339071	137.803567271782	587.990280000397	1068.727115644516	49.341223637481	572.625956985711	824.316143878835	37.999809552849	386.970852567902	893.445747746615	34.747448190697	301.670362885753	977.360818992999	96.373063672559	324.174972517149	1104.540384891241	46.204957532631	288.330652567809	1016.295111485580	1097.699497382936	107.290206123636	1183.614929760841	897.270755269506	107.050360605341	935.282659916510	1089.210677337729	688.606201884658	1026.204056081568	846.903991733870	686.194625885596	
6	26.450000000000	782.613698469814	1014.860529827830	423.414208565583	972.330415214385	1440.423590432547	246.058969670622	1070.077210897117	1366.339764518619	407.800974780816	983.844711778517	1439.363343760944	580.064819035530	962.781202613086	1500.586253769626	399.752659246340	1007.529026782427	950.388692929166	543.003131853324	997.590313788325	964.162701111304	268.939136273631	1098.889868223676	793.163491322585	506.894466792472	1072.876873089358	668.948299551542	580.355190355850	1161.104555106267	637.470533797559	495.980283089790	1192.493483661097	527.888469801956	516.000395698314	1033.439799911139	747.852977333316	299.005175591544	934.844204780517	638.951712608139	241.631379374076	1011.483356750121	556.215935209217	306.407904351320	1005.788547479334	488.386813747730	318.285314119929	981.223513656546	418.001235859216	310.282265709984	891.357756683092	302.591525075892	262.885195485732	943.113238505965	193.383390471144	336.294332305415	1128.022644143819	445.000531954497	525.755573369683	1018.296097997667	384.776752814554	590.210307906968	1021.120895148123	275.342951637556	540.114209975724	833.854850027112	179.805221959563	518.501994183928	1010.711488067456	149.426632577620	550.557890922305	904.575391724009	129.419245878398	588.495226794503	1094.697681113464	49.853893817004	572.833526319084	817.043879902892	37.991584059693	386.916363849607	886.189401580420	34.744209327947	301.644653065685	970.143794121248	96.319348358261	324.258571068635	1097.328001958730	46.062047074991	288.361031094511	1023.423032667006	1100.288175227344	105.444791836456	1200.698869261085	908.104110203763	106.398918974869	925.480517140592	1090.079672509730	688.259816689159	999.435957321977	840.831573963011	690.282497781781	
